<?xml version="1.0" encoding="utf-8"?>
<!-- Generator: Adobe Illustrator 24.2.3, SVG Export Plug-In . SVG Version: 6.00 Build 0)  -->
<svg version="1.1" id="Layer_1" xmlns="http://www.w3.org/2000/svg" xmlns:xlink="http://www.w3.org/1999/xlink" x="0px" y="0px"
	 viewBox="0 0 512 512" style="enable-background:new 0 0 512 512;" xml:space="preserve">
<style type="text/css">
	.st0{fill:#FFFFFF;}
	.st1{fill:#25D366;}
	.st2{fill:#075E54;}
</style>
<path class="st0" d="M449.6,512H62.4C27.9,512,0,484.1,0,449.6V62.4C0,27.9,27.9,0,62.4,0h387.3C484.1,0,512,27.9,512,62.4v387.3
	C512,484.1,484.1,512,449.6,512z"/>
<path class="st1" d="M449.2,61.2c-31.4-31.5-73.3-48.8-117.8-48.8c-91.8,0-166.5,74.7-166.5,166.5c0,29.3,7.7,58,22.2,83.3
	l-23.6,86.3l88.3-23.2c24.3,13.3,51.7,20.3,79.6,20.3h0.1c91.7,0,168.1-74.7,168.1-166.5C499.5,134.5,480.6,92.7,449.2,61.2z
	 M331.4,317.4c-24.9,0-49.3-6.7-70.5-19.3l-5-3l-52.4,13.7l14-51.1l-3.3-5.3c-13.9-22.1-21.2-47.5-21.2-73.7
	c0-76.3,62.1-138.4,138.5-138.4c37,0,71.7,14.4,97.8,40.6s42.2,60.9,42.1,97.9C471.4,255.3,407.7,317.4,331.4,317.4z M407.3,213.8
	c-4.1-2.1-24.6-12.2-28.4-13.5c-3.8-1.4-6.6-2.1-9.4,2.1c-2.8,4.2-10.7,13.5-13.2,16.4c-2.4,2.8-4.9,3.2-9,1.1
	c-24.5-12.2-40.5-21.8-56.6-49.5c-4.3-7.4,4.3-6.8,12.2-22.7c1.4-2.8,0.7-5.2-0.4-7.3c-1.1-2.1-9.4-22.6-12.8-30.9
	c-3.4-8.1-6.8-7-9.4-7.1c-2.4-0.2-5.2-0.2-8-0.2s-7.3,1.1-11.1,5.2c-3.8,4.2-14.6,14.3-14.6,34.7s14.9,40.3,17,43.1
	c2.1,2.8,29.3,44.8,71.1,62.9c26.4,11.4,36.8,12.4,50,10.4c8-1.2,24.6-10.1,28.1-19.8c3.5-9.8,3.5-18.1,2.4-19.8
	C414.2,216.9,411.5,215.8,407.3,213.8z"/>
<g>
	<path d="M92.1,393.1c-2.2-1-4.5-2.6-7-4.7c-2.5-2.1-4.9-4.4-7.3-7.1c-2.4-2.6-4.4-5.3-6.2-7.9c-0.3,0.1-0.7,0.1-1.1,0.1
		c-0.4,0-0.8,0-1.2,0c-7.5,0-13.4-1.4-17.8-4.2c-4.4-2.8-7.6-6.8-9.5-12c-1.9-5.2-2.9-11.4-2.9-18.5v-39.4c0-7.1,1-13.2,2.9-18.3
		c1.9-5.1,5.1-8.9,9.5-11.6c4.4-2.7,10.4-4,17.8-4c7.6,0,13.7,1.3,18.1,4c4.4,2.7,7.6,6.6,9.5,11.6c1.9,5.1,2.9,11.2,2.9,18.3v39.5
		c0,5-0.5,9.6-1.4,13.6c-1,4.1-2.5,7.6-4.7,10.6c-2.2,3-5,5.3-8.6,7c1.1,1.2,2.3,2.5,3.5,3.8c1.2,1.3,2.4,2.5,3.6,3.6
		c1.2,1.1,2.4,2,3.5,2.7L92.1,393.1z M69.3,359.4c3.2,0,5.6-0.7,7.2-2.1c1.6-1.4,2.6-3.3,3.1-5.7c0.5-2.4,0.8-5.1,0.8-7.9v-48.5
		c0-2.9-0.3-5.6-0.8-7.9s-1.6-4.2-3.1-5.5c-1.6-1.3-3.9-2-7.2-2c-3.1,0-5.5,0.7-7,2c-1.6,1.3-2.6,3.2-3.1,5.5
		c-0.5,2.3-0.7,5-0.7,7.9v48.5c0,2.9,0.2,5.5,0.7,7.9c0.5,2.4,1.5,4.3,3.1,5.7C63.8,358.7,66.2,359.4,69.3,359.4z"/>
	<path d="M142.9,373.6c-7.8,0-13.9-1.4-18.2-4.3c-4.3-2.9-7.3-6.9-9-12.2c-1.6-5.3-2.5-11.6-2.5-19v-71.2H132v73.5
		c0,3.3,0.2,6.4,0.6,9.3c0.4,2.9,1.5,5.2,3.1,7c1.6,1.8,4,2.7,7.2,2.7c3.4,0,5.8-0.9,7.3-2.7c1.5-1.8,2.5-4.1,3-7
		c0.5-2.9,0.7-6,0.7-9.3v-73.5h18.6v71.2c0,7.4-0.8,13.7-2.5,19c-1.6,5.3-4.6,9.4-8.9,12.2C156.9,372.2,150.8,373.6,142.9,373.6z"/>
	<path d="M188.1,372.2V266.9h19v105.3H188.1z"/>
	<path d="M251.7,373.6c-7.7,0-13.8-1.5-18.1-4.5c-4.4-3-7.4-7.2-9.2-12.4c-1.7-5.2-2.6-11.3-2.6-18.1v-37.6c0-7.2,0.9-13.4,2.6-18.7
		c1.7-5.3,4.8-9.4,9.2-12.2c4.4-2.9,10.4-4.3,18.1-4.3c7.3,0,13,1.2,17.1,3.7c4.1,2.5,7,6,8.8,10.6c1.7,4.6,2.6,9.9,2.6,16v8.8
		h-18.5v-9.1c0-2.9-0.2-5.6-0.5-8.1c-0.3-2.4-1.1-4.4-2.5-5.8c-1.3-1.4-3.7-2.1-7-2.1c-3.3,0-5.7,0.8-7.2,2.3
		c-1.5,1.5-2.5,3.6-2.9,6.1c-0.4,2.6-0.6,5.4-0.6,8.6v45.8c0,3.8,0.3,7,0.9,9.4c0.6,2.5,1.7,4.3,3.3,5.6c1.6,1.3,3.8,1.9,6.6,1.9
		c3.2,0,5.5-0.8,6.8-2.3c1.3-1.5,2.2-3.5,2.5-6c0.3-2.5,0.5-5.3,0.5-8.5v-9.5h18.5v8.5c0,6.2-0.8,11.8-2.5,16.6
		c-1.6,4.8-4.5,8.6-8.6,11.3C264.9,372.2,259.1,373.6,251.7,373.6z"/>
	<path d="M293.5,372.2V266.9h19.2v46.3l20.8-46.3h18.3l-20.1,47.1l22.2,58.2h-19.1l-17.7-48l-4.4,8.1v39.9H293.5z"/>
	<path class="st2" d="M48,472.2l-12-84.5h12.9l7,54.8l8.8-54.6h10.5l9,54.6l6.9-54.8h12.7L92,472.2H79.5l-9.4-56.7l-9.3,56.7H48z"/>
	<path class="st2" d="M113.7,472.2v-84.5H129V423h17.2v-35.4h15.4v84.5h-15.4V434H129v38.2H113.7z"/>
	<path class="st2" d="M170.3,472.2l16.9-84.5h16.5l16.9,84.5h-14.3l-3.3-19.5h-14.7l-3.4,19.5H170.3z M189.8,442.9h11.5l-5.7-35.5
		L189.8,442.9z"/>
	<path class="st2" d="M233.6,472.2V399h-13.5v-11.4h42.2V399H249v73.2H233.6z"/>
	<path class="st2" d="M291.3,473.3c-5.1,0-9.3-1-12.7-3c-3.4-2-6-4.9-7.7-8.7c-1.7-3.8-2.7-8.5-2.9-14.1l13.3-2.6
		c0.1,3.3,0.5,6.2,1.2,8.7c0.7,2.5,1.7,4.4,3,5.8c1.4,1.4,3.1,2,5.4,2c2.5,0,4.3-0.7,5.3-2.2c1-1.5,1.6-3.4,1.6-5.7
		c0-3.7-0.8-6.7-2.5-9.1c-1.7-2.4-3.9-4.7-6.7-7.1l-10.6-9.4c-3-2.6-5.4-5.4-7.1-8.6c-1.8-3.2-2.7-7.1-2.7-11.7
		c0-6.7,1.9-11.8,5.8-15.4c3.9-3.6,9.2-5.4,16-5.4c4,0,7.3,0.6,9.9,1.8c2.6,1.2,4.7,2.9,6.3,5.1c1.6,2.2,2.7,4.6,3.5,7.4
		c0.8,2.7,1.3,5.7,1.5,8.7l-13.1,2.3c-0.1-2.6-0.4-5-0.9-7.1c-0.5-2.1-1.3-3.7-2.4-4.9c-1.1-1.2-2.8-1.8-5.1-1.8
		c-2.3,0-4.1,0.7-5.3,2.2c-1.2,1.5-1.8,3.4-1.8,5.6c0,2.9,0.6,5.2,1.8,7c1.2,1.8,2.9,3.7,5.1,5.7l10.5,9.3c3.5,2.9,6.5,6.3,8.9,10.3
		c2.5,3.9,3.7,8.7,3.7,14.2c0,4-0.9,7.6-2.7,10.7c-1.8,3.1-4.2,5.6-7.4,7.4C299.2,472.4,295.5,473.3,291.3,473.3z"/>
	<path class="st2" d="M316.8,472.2l16.9-84.5h16.5l16.9,84.5h-14.3l-3.3-19.5h-14.7l-3.4,19.5H316.8z M336.4,442.9h11.5l-5.7-35.5
		L336.4,442.9z"/>
	<path class="st2" d="M375.6,472.2v-84.5h24.8c5.1,0,9.2,0.9,12.4,2.8c3.2,1.9,5.5,4.6,7,8.2c1.5,3.6,2.2,7.9,2.2,13
		c0,5.5-0.9,9.9-2.8,13.3c-1.9,3.4-4.5,5.8-7.9,7.4c-3.4,1.5-7.4,2.3-11.9,2.3H391v37.6H375.6z M391,423.8h5.8c2.8,0,5-0.4,6.5-1.2
		s2.6-2.1,3.2-3.9c0.6-1.8,0.9-4.2,0.9-7.1c0-3.1-0.2-5.5-0.7-7.5c-0.5-1.9-1.4-3.3-2.9-4.2c-1.5-0.9-3.8-1.4-7-1.4H391V423.8z"/>
	<path class="st2" d="M430.6,472.2v-84.5h24.8c5.1,0,9.2,0.9,12.4,2.8c3.2,1.9,5.5,4.6,7,8.2c1.5,3.6,2.2,7.9,2.2,13
		c0,5.5-0.9,9.9-2.8,13.3c-1.9,3.4-4.5,5.8-7.9,7.4c-3.4,1.5-7.4,2.3-11.9,2.3H446v37.6H430.6z M446,423.8h5.8c2.8,0,5-0.4,6.5-1.2
		s2.6-2.1,3.2-3.9c0.6-1.8,0.9-4.2,0.9-7.1c0-3.1-0.2-5.5-0.7-7.5c-0.5-1.9-1.4-3.3-2.9-4.2c-1.5-0.9-3.8-1.4-7-1.4H446V423.8z"/>
</g>
<path class="st1" d="M302.5,140.3c-1.1-2.1-9.4-22.6-12.8-30.9c-3.4-8.1-6.8-7-9.4-7.1c-2.4-0.2-5.2-0.2-8-0.2
	c-2.8,0-7.3,1.1-11.1,5.2c-3.8,4.2-14.6,14.3-14.6,34.7s14.9,40.3,17,43.1c2.1,2.8,29.3,44.8,71.1,62.9c26.4,11.4,36.8,12.4,50,10.4
	c8-1.2,24.6-10.1,28.1-19.8c3.5-9.8,3.5-18.1,2.4-19.8c-1-1.9-3.8-2.9-7.9-5c-4.1-2.1-24.6-12.2-28.4-13.5c-3.8-1.4-6.6-2.1-9.4,2.1
	c-2.8,4.2-10.7,13.5-13.2,16.4c-2.4,2.8-4.9,3.2-9,1.1c-24.5-12.2-40.5-21.8-56.6-49.5c-4.3-7.4,4.3-6.8,12.2-22.7
	C304.3,144.8,303.6,142.4,302.5,140.3z"/>
<path class="st1" d="M363.5,313.7c-10.3,2.4-21.1,3.8-32.1,3.8c-17.5,0-34.7-3.3-50.8-9.6c0.6,10.1,1.1,20.1,1.3,30.2
	c15.9,4.9,32.6,7.5,49.4,7.5h0.1c16.7,0,32.9-2.5,48.2-7.1C374.5,330,369.3,321.7,363.5,313.7z"/>
</svg>
