<?xml version="1.0" encoding="utf-8"?>
<!-- Generator: Adobe Illustrator 24.2.3, SVG Export Plug-In . SVG Version: 6.00 Build 0)  -->
<svg version="1.1" id="Layer_1" xmlns="http://www.w3.org/2000/svg" xmlns:xlink="http://www.w3.org/1999/xlink" x="0px" y="0px"
	 viewBox="0 0 512 512" style="enable-background:new 0 0 512 512;" xml:space="preserve">
<style type="text/css">
	.st0{fill:#FCF5EB;}
	.st1{fill:#25D366;}
	.st2{fill:#101111;}
	.st3{font-family:'RobotoCondensed-Bold';}
	.st4{font-size:108.4643px;}
	.st5{fill:#075E54;}
	.st6{font-size:82.4114px;}
</style>
<path class="st0" d="M460.2,512H51.8C23.2,512,0,488.8,0,460.2V51.8C0,23.2,23.2,0,51.8,0h408.3C488.8,0,512,23.2,512,51.8v408.3
	C512,488.8,488.8,512,460.2,512z"/>
<g>
	<g>
		<path class="st1" d="M370.2,272.1c-6.9,1.8-14.1,2.8-21.6,2.8c-15,0-29.7-4-42.5-11.6l-3-1.8l-16.5,4.3c0,6-0.4,11.9-1,17.8
			l15-3.9c14.7,8,31.2,12.2,48,12.2h0.1c9.9,0,19.4-1.5,28.5-4.1C374.6,282.6,372.3,277.4,370.2,272.1z"/>
		<path class="st1" d="M394.4,212.4c-2.5-1.3-14.8-7.4-17.1-8.1c-2.3-0.8-4-1.3-5.7,1.3s-6.5,8.1-8,9.9c-1.4,1.7-3,1.9-5.4,0.7
			c-14.8-7.4-24.4-13.1-34.1-29.9c-2.6-4.5,2.6-4.1,7.4-13.7c0.8-1.7,0.4-3.1-0.2-4.4c-0.7-1.3-5.7-13.6-7.7-18.6
			c-2.1-4.9-4.1-4.2-5.7-4.3c-1.4-0.1-3.1-0.1-4.8-0.1s-4.4,0.7-6.7,3.1c-2.3,2.5-8.8,8.6-8.8,20.9c0,12.3,9,24.3,10.3,26
			c1.3,1.7,17.7,27,42.9,37.9c15.9,6.9,22.2,7.5,30.2,6.3c4.8-0.7,14.8-6.1,16.9-11.9c2.1-5.9,2.1-10.9,1.4-11.9
			C398.5,214.3,396.9,213.6,394.4,212.4z"/>
		<path class="st1" d="M419.6,120.4c-18.9-19-44.2-29.4-71-29.4c-55.4,0-100.4,45-100.4,100.4c0,17.7,4.6,35,13.4,50.2l-14.2,52
			l53.2-14c14.7,8,31.2,12.2,48,12.2h0.1c55.3,0,101.4-45,101.4-100.4C450,164.6,438.6,139.4,419.6,120.4z M348.6,274.9
			c-15,0-29.7-4-42.5-11.6l-3-1.8l-31.6,8.3l8.4-30.8l-2-3.2c-8.4-13.3-12.8-28.6-12.8-44.4c0-46,37.4-83.5,83.5-83.5
			c22.3,0,43.2,8.7,59,24.5s25.4,36.7,25.4,59C433,237.4,394.6,274.9,348.6,274.9z"/>
	</g>
	<text transform="matrix(1 0 0 1 53.1982 327.7097)"><tspan x="0" y="0" class="st2 st3 st4">QUICK</tspan><tspan x="0" y="71" class="st5 st3 st6">WHATSAPP</tspan></text>
</g>
</svg>
