<?xml version="1.0" encoding="utf-8"?>
<!-- Generator: Adobe Illustrator 24.2.3, SVG Export Plug-In . SVG Version: 6.00 Build 0)  -->
<svg version="1.1" id="Layer_1" xmlns="http://www.w3.org/2000/svg" xmlns:xlink="http://www.w3.org/1999/xlink" x="0px" y="0px"
	 viewBox="0 0 512 512" style="enable-background:new 0 0 512 512;" xml:space="preserve">
<style type="text/css">
	.st0{fill:#FCF5EB;}
	.st1{fill:#25D366;}
	.st2{fill:#101111;}
	.st3{font-family:'RobotoCondensed-Bold';}
	.st4{font-size:127.7021px;}
	.st5{fill:#075E54;}
	.st6{font-size:97.0283px;}
</style>
<path class="st0" d="M460.2,512H51.8C23.2,512,0,488.8,0,460.2V51.8C0,23.2,23.2,0,51.8,0h408.3C488.8,0,512,23.2,512,51.8v408.3
	C512,488.8,488.8,512,460.2,512z"/>
<g>
	<g>
		<path class="st1" d="M395.6,274.9c-8.1,2.1-16.6,3.3-25.4,3.3c-17.7,0-35-4.7-50-13.7l-3.5-2.1l-19.4,5.1c0,7.1-0.5,14-1.2,21
			l17.7-4.6c17.3,9.4,36.7,14.4,56.5,14.4h0.1c11.7,0,22.8-1.8,33.6-4.8C400.8,287.3,398,281.2,395.6,274.9z"/>
		<path class="st1" d="M424.1,204.6c-2.9-1.5-17.4-8.7-20.1-9.5c-2.7-0.9-4.7-1.5-6.7,1.5c-2,3.1-7.7,9.5-9.4,11.7
			c-1.6,2-3.5,2.2-6.4,0.8c-17.4-8.7-28.7-15.4-40.1-35.2c-3.1-5.3,3.1-4.8,8.7-16.1c0.9-2,0.5-3.6-0.2-5.2
			c-0.8-1.5-6.7-16-9.1-21.9c-2.5-5.8-4.8-4.9-6.7-5.1c-1.6-0.1-3.6-0.1-5.7-0.1s-5.2,0.8-7.9,3.6c-2.7,2.9-10.4,10.1-10.4,24.6
			s10.6,28.6,12.1,30.6c1.5,2,20.8,31.8,50.5,44.6c18.7,8.1,26.1,8.8,35.6,7.4c5.7-0.8,17.4-7.2,19.9-14c2.5-6.9,2.5-12.8,1.6-14
			C428.9,206.9,427,206.1,424.1,204.6z"/>
		<path class="st1" d="M453.7,96.3c-22.3-22.4-52-34.6-83.6-34.6c-65.2,0-118.2,53-118.2,118.2c0,20.8,5.4,41.2,15.8,59.1L251,300.2
			l62.6-16.5c17.3,9.4,36.7,14.4,56.5,14.4h0.1c65.1,0,119.4-53,119.4-118.2C489.5,148.4,476.1,118.7,453.7,96.3z M370.1,278.2
			c-17.7,0-35-4.7-50-13.7l-3.5-2.1l-37.2,9.8l9.9-36.3l-2.4-3.8c-9.9-15.7-15.1-33.7-15.1-52.3c0-54.2,44-98.3,98.3-98.3
			c26.3,0,50.9,10.2,69.5,28.8s29.9,43.2,29.9,69.5C469.5,234.1,424.3,278.2,370.1,278.2z"/>
	</g>
	<text transform="matrix(1 0 0 1 22.3511 340.4036)" class="st2 st3 st4">QUICK</text>
	<text transform="matrix(1 0 0 1 22.3511 423.9963)" class="st5 st3 st6">WHATSAPP</text>
</g>
</svg>
