<?xml version="1.0" encoding="utf-8"?>
<!-- Generator: Adobe Illustrator 24.2.3, SVG Export Plug-In . SVG Version: 6.00 Build 0)  -->
<svg version="1.1" id="Layer_1" xmlns="http://www.w3.org/2000/svg" xmlns:xlink="http://www.w3.org/1999/xlink" x="0px" y="0px"
	 viewBox="0 0 512 512" style="enable-background:new 0 0 512 512;" xml:space="preserve">
<style type="text/css">
	.st0{fill:#FCF5EB;}
	.st1{fill:#25D366;}
	.st2{enable-background:new    ;}
	.st3{fill:#101111;}
	.st4{fill:#075E54;}
</style>
<g>
	<path class="st0" d="M460.2,512H51.8C23.2,512,0,488.8,0,460.2V51.8C0,23.2,23.2,0,51.8,0h408.3C488.8,0,512,23.2,512,51.8v408.3
		C512,488.8,488.8,512,460.2,512z"/>
</g>
<g>
	<g>
		<g>
			<path class="st1" d="M395.6,274.9c-8.1,2.1-16.6,3.3-25.4,3.3c-17.7,0-35-4.7-50-13.7l-3.5-2.1l-19.4,5.1c0,7.1-0.5,14-1.2,21
				l17.7-4.6c17.3,9.4,36.7,14.4,56.5,14.4h0.1c11.7,0,22.8-1.8,33.6-4.8C400.8,287.3,398,281.2,395.6,274.9z"/>
		</g>
		<g>
			<path class="st1" d="M424.1,204.6c-2.9-1.5-17.4-8.7-20.1-9.5c-2.7-0.9-4.7-1.5-6.7,1.5c-2,3.1-7.7,9.5-9.4,11.7
				c-1.6,2-3.5,2.2-6.4,0.8c-17.4-8.7-28.7-15.4-40.1-35.2c-3.1-5.3,3.1-4.8,8.7-16.1c0.9-2,0.5-3.6-0.2-5.2
				c-0.8-1.5-6.7-16-9.1-21.9c-2.5-5.8-4.8-4.9-6.7-5.1c-1.6-0.1-3.6-0.1-5.7-0.1s-5.2,0.8-7.9,3.6c-2.7,2.9-10.4,10.1-10.4,24.6
				s10.6,28.6,12.1,30.6s20.8,31.8,50.5,44.6c18.7,8.1,26.1,8.8,35.6,7.4c5.7-0.8,17.4-7.2,19.9-14c2.5-6.9,2.5-12.8,1.6-14
				C428.9,206.9,427,206.1,424.1,204.6z"/>
		</g>
		<g>
			<path class="st1" d="M453.7,96.3c-22.3-22.4-52-34.6-83.6-34.6c-65.2,0-118.2,53-118.2,118.2c0,20.8,5.4,41.2,15.8,59.1
				L251,300.2l62.6-16.5c17.3,9.4,36.7,14.4,56.5,14.4h0.1c65.1,0,119.4-53,119.4-118.2C489.5,148.4,476.1,118.7,453.7,96.3z
				 M370.1,278.2c-17.7,0-35-4.7-50-13.7l-3.5-2.1l-37.2,9.8l9.9-36.3l-2.4-3.8c-9.9-15.7-15.1-33.7-15.1-52.3
				c0-54.2,44-98.3,98.3-98.3c26.3,0,50.9,10.2,69.5,28.8s29.9,43.2,29.9,69.5C469.5,234.1,424.3,278.2,370.1,278.2z"/>
		</g>
	</g>
	<g class="st2">
		<path class="st3" d="M93.5,302.1c0,15-4.1,25.9-12.2,32.7L93.9,346l-11.5,10.6l-16.7-15.3l-4.8,0.3c-10.3,0-18.3-3.5-24.1-10.4
			c-5.8-7-8.7-16.6-8.8-28.9v-14.2c0-12.5,2.9-22.2,8.7-29.2c5.8-7,13.8-10.5,24.1-10.5c10,0,17.9,3.4,23.8,10.1
			c5.8,6.7,8.8,16.2,9,28.4V302.1z M75.1,288c0-8.3-1.2-14.4-3.6-18.3c-2.4-3.9-6-5.9-10.8-5.9s-8.5,1.9-10.8,5.8
			c-2.3,3.8-3.5,9.7-3.6,17.6v15c0,8.3,1.2,14.4,3.6,18.4c2.4,3.9,6,5.9,10.9,5.9c4.8,0,8.3-2,10.7-5.9c2.3-3.9,3.5-9.9,3.6-18V288z
			"/>
		<path class="st3" d="M165.8,249.6v62.9c-0.1,9.4-2.7,16.7-7.8,21.7c-5.1,5-12.5,7.5-22,7.5c-9.7,0-17.2-2.5-22.3-7.6
			c-5.1-5.1-7.7-12.4-7.7-22v-62.4h18.5v62.5c0,5.2,0.8,8.8,2.5,11c1.7,2.2,4.7,3.3,9,3.3c4.4,0,7.4-1.1,9-3.3
			c1.6-2.2,2.5-5.8,2.5-10.8v-62.8H165.8z"/>
		<path class="st3" d="M198.8,340.4h-18.3v-90.8h18.3V340.4z"/>
		<path class="st3" d="M275.8,310.2c-0.5,10.4-3.4,18.2-8.7,23.5c-5.4,5.3-12.9,8-22.7,8c-10.3,0-18.1-3.4-23.6-10.1
			c-5.5-6.8-8.2-16.4-8.2-28.9v-15.3c0-12.5,2.8-22.1,8.5-28.8c5.7-6.8,13.5-10.1,23.6-10.1c9.9,0,17.4,2.8,22.5,8.3
			c5.1,5.5,8.1,13.5,8.8,23.8h-18.4c-0.2-6.4-1.2-10.8-3-13.2c-1.8-2.4-5.1-3.6-9.9-3.6c-4.9,0-8.4,1.7-10.4,5.1
			c-2,3.4-3.1,9.1-3.2,16.9v17.1c0,9,1,15.2,3,18.6c2,3.4,5.5,5.1,10.4,5.1c4.8,0,8.1-1.2,10-3.5c1.8-2.3,2.9-6.6,3.1-12.8H275.8z"
			/>
		<path class="st3" d="M312.6,305.4l-7.2,9.1v25.9H287v-90.8h18.3v39.6l5.8-9.8l16.9-29.8h22.4l-26,39.9l26.4,50.9h-21.8
			L312.6,305.4z"/>
	</g>
	<g class="st2">
		<path class="st4" d="M72.7,398.4l6.5-43.4H93l-12.3,69h-14l-8.1-40.6l-8,40.6h-14l-12.3-69h13.9l6.5,43.3l8.1-43.3h11.7
			L72.7,398.4z"/>
		<path class="st4" d="M148.9,424h-13.9v-29.5h-20.6V424h-13.9v-69h13.9v27.9h20.6V355h13.9V424z"/>
		<path class="st4" d="M193.9,409.9h-19l-3.7,14.1h-14.7l21.6-69h12.7l21.7,69h-14.9L193.9,409.9z M177.9,398.3h12.9l-6.4-24.6
			L177.9,398.3z"/>
		<path class="st4" d="M257.9,366.6h-17.1V424h-14v-57.4h-16.8V355h47.8V366.6z"/>
		<path class="st4" d="M294.3,405.9c0-2.8-0.7-4.9-2.2-6.4c-1.4-1.4-4.1-2.9-7.8-4.5c-6.9-2.6-11.9-5.7-14.9-9.2
			c-3-3.5-4.5-7.7-4.5-12.5c0-5.8,2.1-10.5,6.2-14c4.1-3.5,9.4-5.3,15.7-5.3c4.2,0,8,0.9,11.3,2.7c3.3,1.8,5.9,4.3,7.7,7.6
			c1.8,3.3,2.7,6.9,2.7,11.1h-13.9c0-3.2-0.7-5.7-2.1-7.4c-1.4-1.7-3.4-2.5-5.9-2.5c-2.4,0-4.3,0.7-5.7,2.2c-1.4,1.4-2,3.4-2,5.8
			c0,1.9,0.8,3.6,2.3,5.1c1.5,1.5,4.2,3.1,8.1,4.8c6.7,2.4,11.6,5.4,14.7,9c3,3.5,4.6,8,4.6,13.5c0,6-1.9,10.7-5.7,14.1
			c-3.8,3.4-9,5.1-15.6,5.1c-4.5,0-8.5-0.9-12.2-2.7c-3.7-1.8-6.5-4.5-8.6-7.9s-3.1-7.4-3.1-12.1h14c0,4,0.8,6.9,2.3,8.7
			c1.5,1.8,4.1,2.7,7.6,2.7C291.9,413.6,294.3,411,294.3,405.9z"/>
		<path class="st4" d="M350.5,409.9h-19l-3.7,14.1h-14.7l21.6-69h12.7l21.7,69h-14.9L350.5,409.9z M334.5,398.3h12.9l-6.4-24.6
			L334.5,398.3z"/>
		<path class="st4" d="M389.4,399.7V424h-13.9v-69H399c6.8,0,12.3,2.1,16.3,6.3c4.1,4.2,6.1,9.7,6.1,16.5c0,6.8-2,12.1-6,16
			c-4,3.9-9.6,5.9-16.7,5.9H389.4z M389.4,388.1h9.6c2.7,0,4.7-0.9,6.2-2.6s2.2-4.3,2.2-7.6c0-3.4-0.7-6.2-2.2-8.2
			c-1.5-2-3.5-3.1-6-3.1h-9.7V388.1z"/>
		<path class="st4" d="M444.6,399.7V424h-13.9v-69h23.5c6.8,0,12.3,2.1,16.3,6.3c4.1,4.2,6.1,9.7,6.1,16.5c0,6.8-2,12.1-6,16
			c-4,3.9-9.6,5.9-16.7,5.9H444.6z M444.6,388.1h9.6c2.7,0,4.7-0.9,6.2-2.6c1.5-1.7,2.2-4.3,2.2-7.6c0-3.4-0.7-6.2-2.2-8.2
			s-3.5-3.1-6-3.1h-9.7V388.1z"/>
	</g>
</g>
</svg>
